<svg xmlns="http://www.w3.org/2000/svg" viewBox="0 0 1600 1000"><defs><radialGradient id="b"><stop stop-color="#14100b"/><stop offset=".45" stop-color="#080706"/><stop offset="1" stop-color="#020202"/></radialGradient><radialGradient id="g"><stop stop-color="#fff2d3" stop-opacity=".6"/><stop offset=".2" stop-color="#d6a668" stop-opacity=".3"/><stop offset=".7" stop-color="#624323" stop-opacity=".1"/><stop offset="1" stop-opacity="0"/></radialGradient><filter id="x"><feGaussianBlur stdDeviation="36"/></filter></defs><rect width="1600" height="1000" fill="url(#b)"/><circle cx="527" cy="636" r="1.2" fill="#fffaf0" opacity="0.69"/><circle cx="1321" cy="624" r="1" fill="#fffaf0" opacity="0.89"/><circle cx="1000" cy="295" r="1.2" fill="#f4d5a0" opacity="0.77"/><circle cx="1147" cy="886" r="2.2" fill="#fffaf0" opacity="0.86"/><circle cx="514" cy="680" r="1.2" fill="#fffaf0" opacity="0.64"/><circle cx="1558" cy="45" r="1" fill="#f4d5a0" opacity="0.92"/><circle cx="127" cy="338" r="1" fill="#fffaf0" opacity="0.48"/><circle cx="1258" cy="766" r="2.2" fill="#fffaf0" opacity="0.90"/><circle cx="848" cy="775" r="2.2" fill="#fffaf0" opacity="0.39"/><circle cx="788" cy="129" r="1" fill="#f4d5a0" opacity="0.44"/><circle cx="1416" cy="476" r="1.6" fill="#fffaf0" opacity="0.84"/><circle cx="1215" cy="389" r="2.2" fill="#fffaf0" opacity="0.89"/><circle cx="1436" cy="967" r="1" fill="#fffaf0" opacity="0.94"/><circle cx="1414" cy="742" r="1.2" fill="#fffaf0" opacity="0.51"/><circle cx="1149" cy="956" r="1" fill="#fffaf0" opacity="0.44"/><circle cx="1214" cy="303" r="1.6" fill="#f4d5a0" opacity="0.61"/><circle cx="1348" cy="525" r="1" fill="#fffaf0" opacity="0.34"/><circle cx="348" cy="50" r="1.6" fill="#fffaf0" opacity="0.57"/><circle cx="283" cy="75" r="1" fill="#fffaf0" opacity="0.68"/><circle cx="1168" cy="932" r="1.6" fill="#fffaf0" opacity="0.95"/><circle cx="674" cy="37" r="1" fill="#f4d5a0" opacity="0.65"/><circle cx="444" cy="447" r="1.6" fill="#fffaf0" opacity="0.40"/><circle cx="126" cy="918" r="1.6" fill="#fffaf0" opacity="0.92"/><circle cx="813" cy="415" r="2.2" fill="#fffaf0" opacity="0.55"/><circle cx="1259" cy="727" r="1" fill="#fffaf0" opacity="0.91"/><circle cx="1078" cy="307" r="2.2" fill="#fffaf0" opacity="0.77"/><circle cx="656" cy="477" r="1.6" fill="#fffaf0" opacity="0.66"/><circle cx="63" cy="837" r="2.2" fill="#fffaf0" opacity="0.50"/><circle cx="811" cy="660" r="1.2" fill="#f4d5a0" opacity="0.71"/><circle cx="994" cy="391" r="1.6" fill="#fffaf0" opacity="0.48"/><circle cx="1042" cy="52" r="1" fill="#fffaf0" opacity="0.31"/><circle cx="796" cy="287" r="2.2" fill="#fffaf0" opacity="0.69"/><circle cx="403" cy="402" r="1.2" fill="#fffaf0" opacity="0.54"/><circle cx="1259" cy="300" r="1.6" fill="#fffaf0" opacity="0.37"/><circle cx="95" cy="612" r="1.2" fill="#fffaf0" opacity="0.44"/><circle cx="591" cy="274" r="1.6" fill="#f4d5a0" opacity="0.58"/><circle cx="1469" cy="129" r="1" fill="#fffaf0" opacity="0.92"/><circle cx="1422" cy="883" r="1.2" fill="#fffaf0" opacity="0.86"/><ellipse cx="1110" cy="480" rx="520" ry="300" fill="url(#g)" filter="url(#x)"/><ellipse cx="940" cy="660" rx="280" ry="130" fill="#030303" filter="url(#x)"/><ellipse cx="1240" cy="650" rx="300" ry="140" fill="#050403" filter="url(#x)"/><circle cx="1110" cy="425" r="5" fill="#fff9e8"/></svg>