<svg xmlns="http://www.w3.org/2000/svg" viewBox="0 0 1600 1000"><defs><radialGradient id="b"><stop stop-color="#15110d"/><stop offset=".42" stop-color="#070605"/><stop offset="1" stop-color="#020202"/></radialGradient><radialGradient id="c"><stop stop-color="#fff4d6"/><stop offset=".18" stop-color="#deb77e"/><stop offset=".6" stop-color="#75502b" stop-opacity=".18"/><stop offset="1" stop-opacity="0"/></radialGradient><filter id="x"><feGaussianBlur stdDeviation="18"/></filter></defs><rect width="1600" height="1000" fill="url(#b)"/><circle cx="523" cy="340" r="1" fill="#fffaf0" opacity="0.61"/><circle cx="224" cy="98" r="1" fill="#fffaf0" opacity="0.90"/><circle cx="160" cy="257" r="1.6" fill="#fffaf0" opacity="0.41"/><circle cx="257" cy="298" r="1.2" fill="#fffaf0" opacity="0.32"/><circle cx="1352" cy="856" r="1.6" fill="#fffaf0" opacity="0.43"/><circle cx="674" cy="326" r="1.6" fill="#f4d5a0" opacity="0.69"/><circle cx="1415" cy="427" r="1.2" fill="#f4d5a0" opacity="0.61"/><circle cx="222" cy="867" r="1.6" fill="#f4d5a0" opacity="0.49"/><circle cx="1483" cy="933" r="1.6" fill="#fffaf0" opacity="0.63"/><circle cx="887" cy="463" r="1.6" fill="#fffaf0" opacity="0.40"/><circle cx="664" cy="295" r="1" fill="#f4d5a0" opacity="0.60"/><circle cx="614" cy="561" r="2.2" fill="#fffaf0" opacity="0.39"/><circle cx="1419" cy="230" r="1" fill="#fffaf0" opacity="0.43"/><circle cx="1335" cy="481" r="1.6" fill="#f4d5a0" opacity="0.58"/><circle cx="1245" cy="358" r="1.2" fill="#fffaf0" opacity="0.37"/><circle cx="166" cy="755" r="1.2" fill="#fffaf0" opacity="0.68"/><circle cx="526" cy="155" r="1.6" fill="#fffaf0" opacity="0.49"/><circle cx="92" cy="73" r="1.6" fill="#fffaf0" opacity="0.88"/><circle cx="625" cy="782" r="1.6" fill="#f4d5a0" opacity="0.49"/><circle cx="353" cy="823" r="2.2" fill="#fffaf0" opacity="0.87"/><circle cx="1432" cy="867" r="1" fill="#fffaf0" opacity="0.42"/><circle cx="949" cy="329" r="1.2" fill="#fffaf0" opacity="0.69"/><circle cx="365" cy="369" r="1" fill="#fffaf0" opacity="0.60"/><circle cx="787" cy="832" r="1.6" fill="#fffaf0" opacity="0.67"/><circle cx="939" cy="242" r="2.2" fill="#fffaf0" opacity="0.37"/><circle cx="167" cy="86" r="1.2" fill="#fffaf0" opacity="0.93"/><circle cx="1282" cy="71" r="2.2" fill="#fffaf0" opacity="0.51"/><circle cx="112" cy="155" r="1.6" fill="#fffaf0" opacity="0.57"/><circle cx="450" cy="519" r="1.2" fill="#fffaf0" opacity="0.57"/><circle cx="115" cy="254" r="2.2" fill="#fffaf0" opacity="0.72"/><circle cx="916" cy="880" r="1.2" fill="#fffaf0" opacity="0.32"/><circle cx="560" cy="289" r="1.2" fill="#fffaf0" opacity="0.80"/><circle cx="894" cy="920" r="1.6" fill="#f4d5a0" opacity="0.33"/><circle cx="684" cy="608" r="1" fill="#fffaf0" opacity="0.56"/><circle cx="1377" cy="699" r="1" fill="#fffaf0" opacity="0.36"/><circle cx="471" cy="924" r="1.2" fill="#fffaf0" opacity="0.73"/><circle cx="1355" cy="352" r="2.2" fill="#fffaf0" opacity="0.73"/><circle cx="1444" cy="850" r="1.6" fill="#fffaf0" opacity="0.55"/><g transform="translate(1040 510)"><circle r="210" fill="url(#c)" filter="url(#x)"/><path d="M0 0C120-120 280-80 355 30C460 190 300 330 120 300C-120 260-190 20-70-180C70-410 380-360 510-120" fill="none" stroke="#d1a66c" stroke-opacity=".2" stroke-width="48" filter="url(#x)"/><path d="M0 0C100-55 205 10 205 100C205 245-5 255-115 150C-270 5-120-245 100-270C330-300 475-95 440 95" fill="none" stroke="#f0d2a4" stroke-opacity=".2" stroke-width="22" filter="url(#x)"/><circle r="86" fill="url(#c)"/></g></svg>