<svg xmlns="http://www.w3.org/2000/svg" viewBox="0 0 1200 900" role="img" aria-labelledby="title desc">
<title id="title">Разговор двух людей в ярком кафе</title>
<desc id="desc">Современная иллюстрация пары, которая спокойно разговаривает за столом в светлом кафе.</desc>
<defs><linearGradient id="bg" x1="0" y1="0" x2="1" y2="1"><stop stop-color="#ffe2d8"/><stop offset=".48" stop-color="#fff7d5"/><stop offset="1" stop-color="#dff4ff"/></linearGradient><filter id="s" x="-20%" y="-20%" width="140%" height="140%"><feDropShadow dx="0" dy="20" stdDeviation="22" flood-color="#4a2633" flood-opacity=".14"/></filter></defs>
<rect width="1200" height="900" rx="72" fill="url(#bg)"/>
<rect x="90" y="110" width="1020" height="560" rx="56" fill="#fff" opacity=".72"/>
<circle cx="160" cy="160" r="52" fill="#ff7a59"/><circle cx="1040" cy="180" r="70" fill="#5a7cff" opacity=".85"/>
<path d="M95 680h1010v120H95z" fill="#eea968"/>
<g filter="url(#s)"><ellipse cx="600" cy="650" rx="265" ry="48" fill="#c8794f" opacity=".28"/><rect x="395" y="500" width="410" height="165" rx="40" fill="#ffffff"/><rect x="430" y="535" width="140" height="16" rx="8" fill="#ff9c7f"/><rect x="430" y="575" width="210" height="12" rx="6" fill="#d9deea"/><rect x="430" y="607" width="180" height="12" rx="6" fill="#d9deea"/></g>
<g><circle cx="375" cy="335" r="86" fill="#e8aa83"/><path d="M290 337c6-94 67-147 143-112 52 24 69 78 55 128-23-36-57-57-103-61-31 23-63 38-95 45z" fill="#442f35"/><path d="M260 465c46-82 160-102 230-35 48 46 64 113 54 210H230c-5-66 2-126 30-175z" fill="#3157ff"/><path d="M338 481c48 35 88 67 130 109" stroke="#e8aa83" stroke-width="34" stroke-linecap="round"/><circle cx="346" cy="345" r="6" fill="#34272a"/><circle cx="404" cy="345" r="6" fill="#34272a"/><path d="M358 387c18 10 37 10 55-1" stroke="#a94f4a" stroke-width="7" stroke-linecap="round" fill="none"/></g>
<g><circle cx="820" cy="340" r="88" fill="#eeb58f"/><path d="M742 333c10-96 84-145 159-96 39 25 55 69 47 112-25-27-58-46-98-52-36 24-72 37-108 36z" fill="#2d3548"/><path d="M704 470c55-76 166-88 235-21 46 44 61 107 52 191H677c-2-70 5-127 27-170z" fill="#ff7757"/><path d="M848 489c-43 33-79 65-117 106" stroke="#eeb58f" stroke-width="34" stroke-linecap="round"/><circle cx="794" cy="348" r="6" fill="#30303a"/><circle cx="850" cy="348" r="6" fill="#30303a"/><path d="M800 390c20 11 39 10 58-2" stroke="#ad584d" stroke-width="7" stroke-linecap="round" fill="none"/></g>
<g filter="url(#s)"><path d="M544 495h112l-12 70c-4 26-22 40-44 40s-40-14-44-40z" fill="#ffd84f"/><path d="M654 514h28c26 0 26 41 1 41h-32" fill="none" stroke="#ffd84f" stroke-width="16" stroke-linecap="round"/></g>
<g><rect x="145" y="205" width="120" height="170" rx="22" fill="#e7f2ff"/><path d="M180 340c3-75 27-125 66-157 13 68-3 122-46 157z" fill="#2fa370"/><path d="M214 340c4-65 40-110 85-138-3 69-33 112-66 138z" fill="#54bd8d"/><rect x="171" y="329" width="85" height="55" rx="16" fill="#ffb37d"/></g>
<g><rect x="930" y="230" width="110" height="160" rx="24" fill="#fff2cf"/><path d="M965 356c-2-66 17-117 55-154 18 67 9 119-31 154z" fill="#2d9f6c"/><rect x="955" y="347" width="74" height="50" rx="15" fill="#5a7cff"/></g>
</svg>