<svg xmlns="http://www.w3.org/2000/svg" viewBox="0 0 1200 900" role="img" aria-labelledby="title desc">
<title id="title">Рабочая сцена с ноутбуком и заметками</title>
<desc id="desc">Современная иллюстрация человека за ноутбуком в ярком домашнем офисе с блокнотом и растениями.</desc>
<defs><linearGradient id="bg" x1="0" y1="0" x2="1" y2="1"><stop stop-color="#dff3ff"/><stop offset=".5" stop-color="#fff0d6"/><stop offset="1" stop-color="#e5dcff"/></linearGradient><filter id="s" x="-20%" y="-20%" width="140%" height="140%"><feDropShadow dx="0" dy="20" stdDeviation="22" flood-color="#29314c" flood-opacity=".14"/></filter></defs>
<rect width="1200" height="900" rx="72" fill="url(#bg)"/>
<rect x="85" y="100" width="1030" height="630" rx="60" fill="#fff" opacity=".7"/>
<rect x="120" y="640" width="960" height="130" rx="38" fill="#efad6f"/>
<rect x="170" y="745" width="860" height="48" rx="18" fill="#ca774c"/>
<g filter="url(#s)"><rect x="470" y="400" width="420" height="245" rx="28" fill="#202536"/><rect x="490" y="420" width="380" height="195" rx="18" fill="#f7f9fc"/><rect x="520" y="452" width="150" height="18" rx="9" fill="#3157ff"/><rect x="520" y="494" width="270" height="12" rx="6" fill="#d7ddea"/><rect x="520" y="526" width="210" height="12" rx="6" fill="#d7ddea"/><rect x="520" y="566" width="105" height="28" rx="14" fill="#37c98d"/></g>
<g><circle cx="360" cy="320" r="92" fill="#e6aa82"/><path d="M278 322c3-99 76-151 153-110 52 28 73 83 61 136-26-36-64-58-111-63-37 27-72 39-103 37z" fill="#2f3547"/><path d="M245 470c52-78 168-94 240-28 52 48 69 116 58 211H215c-2-70 5-129 30-183z" fill="#ff7757"/><path d="M402 485c50 29 92 61 135 100" stroke="#e6aa82" stroke-width="36" stroke-linecap="round"/><circle cx="334" cy="330" r="6" fill="#2f3038"/><circle cx="389" cy="330" r="6" fill="#2f3038"/><path d="M342 373c19 10 40 10 59-2" stroke="#a7534f" stroke-width="7" stroke-linecap="round" fill="none"/></g>
<g filter="url(#s)"><rect x="780" y="265" width="210" height="120" rx="24" fill="#ffd84f" transform="rotate(4 780 265)"/><rect x="812" y="300" width="130" height="14" rx="7" fill="#735800" transform="rotate(4 812 300)" opacity=".7"/><rect x="812" y="337" width="100" height="11" rx="6" fill="#735800" transform="rotate(4 812 337)" opacity=".38"/></g>
<g filter="url(#s)"><rect x="145" y="565" width="250" height="125" rx="24" fill="#ffffff" transform="rotate(-5 145 565)"/><rect x="175" y="596" width="140" height="13" rx="7" fill="#3157ff" transform="rotate(-5 175 596)"/><rect x="175" y="632" width="175" height="10" rx="5" fill="#d8dce8" transform="rotate(-5 175 632)"/></g>
<g><path d="M960 650c-5-94 20-170 72-231 31 80 28 157-12 231z" fill="#279d6b"/><path d="M1005 650c8-83 55-148 111-185-5 81-39 145-83 185z" fill="#4bbc8b"/><rect x="955" y="620" width="105" height="92" rx="22" fill="#5a7cff"/></g>
<circle cx="1060" cy="150" r="62" fill="#ff7a59"/><circle cx="150" cy="150" r="46" fill="#ffd84f"/>
</svg>